<svg xmlns="http://www.w3.org/2000/svg" xmlns:xlink="http://www.w3.org/1999/xlink" fill="#000000" version="1.1" x="0px" y="0px" viewBox="0 0 22 22" enable-background="new 0 0 100 100" xml:space="preserve">
<rect x="0" y="0" fill="#000000" width="10" height="10"/>
<rect x="12" y="0" fill="#000000" width="10" height="10"/>
<rect x="0" y="12" fill="#000000" width="10" height="10"/>
<rect x="2" y="2" fill="#ffffff" width="6" height="6"/>
<rect x="4" y="4" fill="#000000" width="2" height="2"/>
<rect x="14" y="2" fill="#ffffff" width="6" height="6"/>
<rect x="16" y="4" fill="#000000" width="2" height="2"/>
<rect x="2" y="14" fill="#ffffff" width="6" height="6"/>
<rect x="4" y="16" fill="#000000" width="2" height="2"/>
<rect x="12" y="12" fill="#000000" width="2" height="2"/>
<rect x="16" y="12" fill="#000000" width="2" height="2"/>
<rect x="20" y="12" fill="#000000" width="2" height="2"/>
<rect x="12" y="16" fill="#000000" width="2" height="2"/>
<rect x="16" y="16" fill="#000000" width="2" height="2"/>
<rect x="20" y="16" fill="#000000" width="2" height="2"/>
<rect x="12" y="20" fill="#000000" width="2" height="2"/>
<rect x="16" y="20" fill="#000000" width="2" height="2"/>
<rect x="20" y="20" fill="#000000" width="2" height="2"/>
<rect x="14" y="14" fill="#000000" width="2" height="2"/>
<rect x="18" y="14" fill="#000000" width="2" height="2"/>
<rect x="14" y="18" fill="#000000" width="2" height="2"/>
<rect x="18" y="18" fill="#000000" width="2" height="2"/>
</svg>
